<mxfile host="app.diagrams.net" agent="Mozilla/5.0 (Windows NT 10.0; Win64; x64) AppleWebKit/537.36 (KHTML, like Gecko) Chrome/127.0.0.0 Safari/537.36 Edg/127.0.0.0" version="24.7.6">
  <diagram name="第 1 页" id="fuXkTbOR8J_8fzRzZ1Gb">
    <mxGraphModel dx="1160" dy="507" grid="0" gridSize="10" guides="1" tooltips="1" connect="1" arrows="1" fold="1" page="1" pageScale="1" pageWidth="827" pageHeight="1169" math="0" shadow="0">
      <root>
        <mxCell id="0" />
        <mxCell id="1" parent="0" />
        <mxCell id="Gx557f4YZXInn6CYhVuj-1" value="文件类" style="swimlane;fontStyle=0;childLayout=stackLayout;horizontal=1;startSize=30;horizontalStack=0;resizeParent=1;resizeParentMax=0;resizeLast=0;collapsible=1;marginBottom=0;whiteSpace=wrap;html=1;" vertex="1" parent="1">
          <mxGeometry x="52" y="222" width="80" height="108" as="geometry" />
        </mxCell>
        <mxCell id="Gx557f4YZXInn6CYhVuj-2" value="1.creatDir" style="text;strokeColor=none;fillColor=none;align=left;verticalAlign=middle;spacingLeft=4;spacingRight=4;overflow=hidden;points=[[0,0.5],[1,0.5]];portConstraint=eastwest;rotatable=0;whiteSpace=wrap;html=1;" vertex="1" parent="Gx557f4YZXInn6CYhVuj-1">
          <mxGeometry y="30" width="80" height="30" as="geometry" />
        </mxCell>
        <mxCell id="Gx557f4YZXInn6CYhVuj-3" value="2.linkDir" style="text;strokeColor=none;fillColor=none;align=left;verticalAlign=middle;spacingLeft=4;spacingRight=4;overflow=hidden;points=[[0,0.5],[1,0.5]];portConstraint=eastwest;rotatable=0;whiteSpace=wrap;html=1;" vertex="1" parent="Gx557f4YZXInn6CYhVuj-1">
          <mxGeometry y="60" width="80" height="30" as="geometry" />
        </mxCell>
        <mxCell id="Gx557f4YZXInn6CYhVuj-4" value="3.文件下拉" style="text;strokeColor=none;fillColor=none;align=left;verticalAlign=middle;spacingLeft=4;spacingRight=4;overflow=hidden;points=[[0,0.5],[1,0.5]];portConstraint=eastwest;rotatable=0;whiteSpace=wrap;html=1;" vertex="1" parent="Gx557f4YZXInn6CYhVuj-1">
          <mxGeometry y="90" width="80" height="18" as="geometry" />
        </mxCell>
        <mxCell id="Gx557f4YZXInn6CYhVuj-6" value="生成类" style="swimlane;fontStyle=0;childLayout=stackLayout;horizontal=1;startSize=30;horizontalStack=0;resizeParent=1;resizeParentMax=0;resizeLast=0;collapsible=1;marginBottom=0;whiteSpace=wrap;html=1;" vertex="1" parent="1">
          <mxGeometry x="193" y="222" width="109" height="108" as="geometry" />
        </mxCell>
        <mxCell id="Gx557f4YZXInn6CYhVuj-7" value="1.createMakefile" style="text;strokeColor=none;fillColor=none;align=left;verticalAlign=middle;spacingLeft=4;spacingRight=4;overflow=hidden;points=[[0,0.5],[1,0.5]];portConstraint=eastwest;rotatable=0;whiteSpace=wrap;html=1;" vertex="1" parent="Gx557f4YZXInn6CYhVuj-6">
          <mxGeometry y="30" width="109" height="30" as="geometry" />
        </mxCell>
        <mxCell id="Gx557f4YZXInn6CYhVuj-8" value="2.creatFinalStage" style="text;strokeColor=none;fillColor=none;align=left;verticalAlign=middle;spacingLeft=4;spacingRight=4;overflow=hidden;points=[[0,0.5],[1,0.5]];portConstraint=eastwest;rotatable=0;whiteSpace=wrap;html=1;" vertex="1" parent="Gx557f4YZXInn6CYhVuj-6">
          <mxGeometry y="60" width="109" height="30" as="geometry" />
        </mxCell>
        <mxCell id="Gx557f4YZXInn6CYhVuj-9" value="..." style="text;strokeColor=none;fillColor=none;align=left;verticalAlign=middle;spacingLeft=4;spacingRight=4;overflow=hidden;points=[[0,0.5],[1,0.5]];portConstraint=eastwest;rotatable=0;whiteSpace=wrap;html=1;" vertex="1" parent="Gx557f4YZXInn6CYhVuj-6">
          <mxGeometry y="90" width="109" height="18" as="geometry" />
        </mxCell>
        <mxCell id="Gx557f4YZXInn6CYhVuj-11" value="basicFlow类" style="swimlane;fontStyle=0;childLayout=stackLayout;horizontal=1;startSize=30;horizontalStack=0;resizeParent=1;resizeParentMax=0;resizeLast=0;collapsible=1;marginBottom=0;whiteSpace=wrap;html=1;" vertex="1" parent="1">
          <mxGeometry x="205" y="447" width="109" height="150" as="geometry">
            <mxRectangle x="205" y="447" width="100" height="30" as="alternateBounds" />
          </mxGeometry>
        </mxCell>
        <mxCell id="Gx557f4YZXInn6CYhVuj-18" value="1.creatDir" style="text;strokeColor=none;fillColor=none;align=left;verticalAlign=middle;spacingLeft=4;spacingRight=4;overflow=hidden;points=[[0,0.5],[1,0.5]];portConstraint=eastwest;rotatable=0;whiteSpace=wrap;html=1;" vertex="1" parent="Gx557f4YZXInn6CYhVuj-11">
          <mxGeometry y="30" width="109" height="30" as="geometry" />
        </mxCell>
        <mxCell id="Gx557f4YZXInn6CYhVuj-40" value="2.copy file" style="text;strokeColor=none;fillColor=none;align=left;verticalAlign=middle;spacingLeft=4;spacingRight=4;overflow=hidden;points=[[0,0.5],[1,0.5]];portConstraint=eastwest;rotatable=0;whiteSpace=wrap;html=1;" vertex="1" parent="Gx557f4YZXInn6CYhVuj-11">
          <mxGeometry y="60" width="109" height="30" as="geometry" />
        </mxCell>
        <mxCell id="Gx557f4YZXInn6CYhVuj-19" value="1.createMakefile" style="text;strokeColor=none;fillColor=none;align=left;verticalAlign=middle;spacingLeft=4;spacingRight=4;overflow=hidden;points=[[0,0.5],[1,0.5]];portConstraint=eastwest;rotatable=0;whiteSpace=wrap;html=1;" vertex="1" parent="Gx557f4YZXInn6CYhVuj-11">
          <mxGeometry y="90" width="109" height="30" as="geometry" />
        </mxCell>
        <mxCell id="Gx557f4YZXInn6CYhVuj-20" value="3.creatFinalStage" style="text;strokeColor=none;fillColor=none;align=left;verticalAlign=middle;spacingLeft=4;spacingRight=4;overflow=hidden;points=[[0,0.5],[1,0.5]];portConstraint=eastwest;rotatable=0;whiteSpace=wrap;html=1;" vertex="1" parent="Gx557f4YZXInn6CYhVuj-11">
          <mxGeometry y="120" width="109" height="30" as="geometry" />
        </mxCell>
        <mxCell id="Gx557f4YZXInn6CYhVuj-15" value="" style="endArrow=classic;html=1;rounded=0;exitX=0.538;exitY=1.278;exitDx=0;exitDy=0;exitPerimeter=0;entryX=0.25;entryY=0;entryDx=0;entryDy=0;" edge="1" parent="1" source="Gx557f4YZXInn6CYhVuj-4" target="Gx557f4YZXInn6CYhVuj-11">
          <mxGeometry width="50" height="50" relative="1" as="geometry">
            <mxPoint x="388" y="414" as="sourcePoint" />
            <mxPoint x="438" y="364" as="targetPoint" />
          </mxGeometry>
        </mxCell>
        <mxCell id="Gx557f4YZXInn6CYhVuj-16" value="" style="endArrow=classic;html=1;rounded=0;exitX=0.569;exitY=1.074;exitDx=0;exitDy=0;exitPerimeter=0;entryX=0.5;entryY=0;entryDx=0;entryDy=0;" edge="1" parent="1" source="Gx557f4YZXInn6CYhVuj-9" target="Gx557f4YZXInn6CYhVuj-11">
          <mxGeometry width="50" height="50" relative="1" as="geometry">
            <mxPoint x="388" y="414" as="sourcePoint" />
            <mxPoint x="255" y="419" as="targetPoint" />
          </mxGeometry>
        </mxCell>
        <mxCell id="Gx557f4YZXInn6CYhVuj-21" value="始祖文件类" style="swimlane;fontStyle=0;childLayout=stackLayout;horizontal=1;startSize=30;horizontalStack=0;resizeParent=1;resizeParentMax=0;resizeLast=0;collapsible=1;marginBottom=0;whiteSpace=wrap;html=1;" vertex="1" collapsed="1" parent="1">
          <mxGeometry x="52" y="82" width="95" height="30" as="geometry">
            <mxRectangle x="52" y="82" width="80" height="60" as="alternateBounds" />
          </mxGeometry>
        </mxCell>
        <mxCell id="Gx557f4YZXInn6CYhVuj-25" value="始祖生成类" style="swimlane;fontStyle=0;childLayout=stackLayout;horizontal=1;startSize=30;horizontalStack=0;resizeParent=1;resizeParentMax=0;resizeLast=0;collapsible=1;marginBottom=0;whiteSpace=wrap;html=1;" vertex="1" collapsed="1" parent="1">
          <mxGeometry x="193" y="85" width="95" height="30" as="geometry">
            <mxRectangle x="193" y="85" width="109" height="60" as="alternateBounds" />
          </mxGeometry>
        </mxCell>
        <mxCell id="Gx557f4YZXInn6CYhVuj-29" value="" style="endArrow=classic;html=1;rounded=0;exitX=0.5;exitY=1;exitDx=0;exitDy=0;entryX=0.5;entryY=0;entryDx=0;entryDy=0;" edge="1" parent="1" source="Gx557f4YZXInn6CYhVuj-21" target="Gx557f4YZXInn6CYhVuj-1">
          <mxGeometry width="50" height="50" relative="1" as="geometry">
            <mxPoint x="79" y="119.66599999999994" as="sourcePoint" />
            <mxPoint x="462" y="163" as="targetPoint" />
          </mxGeometry>
        </mxCell>
        <mxCell id="Gx557f4YZXInn6CYhVuj-30" value="" style="endArrow=classic;html=1;rounded=0;exitX=0.5;exitY=1;exitDx=0;exitDy=0;entryX=0.5;entryY=0;entryDx=0;entryDy=0;" edge="1" parent="1" source="Gx557f4YZXInn6CYhVuj-25" target="Gx557f4YZXInn6CYhVuj-6">
          <mxGeometry width="50" height="50" relative="1" as="geometry">
            <mxPoint x="242.28199999999993" y="122.33200000000011" as="sourcePoint" />
            <mxPoint x="462" y="163" as="targetPoint" />
          </mxGeometry>
        </mxCell>
        <mxCell id="Gx557f4YZXInn6CYhVuj-33" value="config类" style="swimlane;fontStyle=0;childLayout=stackLayout;horizontal=1;startSize=30;horizontalStack=0;resizeParent=1;resizeParentMax=0;resizeLast=0;collapsible=1;marginBottom=0;whiteSpace=wrap;html=1;" vertex="1" parent="1">
          <mxGeometry x="363" y="222" width="109" height="108" as="geometry">
            <mxRectangle x="363" y="222" width="79" height="30" as="alternateBounds" />
          </mxGeometry>
        </mxCell>
        <mxCell id="Gx557f4YZXInn6CYhVuj-34" value="1.readConfig" style="text;strokeColor=none;fillColor=none;align=left;verticalAlign=middle;spacingLeft=4;spacingRight=4;overflow=hidden;points=[[0,0.5],[1,0.5]];portConstraint=eastwest;rotatable=0;whiteSpace=wrap;html=1;" vertex="1" parent="Gx557f4YZXInn6CYhVuj-33">
          <mxGeometry y="30" width="109" height="30" as="geometry" />
        </mxCell>
        <mxCell id="Gx557f4YZXInn6CYhVuj-35" value="2.switchConfig" style="text;strokeColor=none;fillColor=none;align=left;verticalAlign=middle;spacingLeft=4;spacingRight=4;overflow=hidden;points=[[0,0.5],[1,0.5]];portConstraint=eastwest;rotatable=0;whiteSpace=wrap;html=1;" vertex="1" parent="Gx557f4YZXInn6CYhVuj-33">
          <mxGeometry y="60" width="109" height="30" as="geometry" />
        </mxCell>
        <mxCell id="Gx557f4YZXInn6CYhVuj-36" value="..." style="text;strokeColor=none;fillColor=none;align=left;verticalAlign=middle;spacingLeft=4;spacingRight=4;overflow=hidden;points=[[0,0.5],[1,0.5]];portConstraint=eastwest;rotatable=0;whiteSpace=wrap;html=1;" vertex="1" parent="Gx557f4YZXInn6CYhVuj-33">
          <mxGeometry y="90" width="109" height="18" as="geometry" />
        </mxCell>
        <mxCell id="Gx557f4YZXInn6CYhVuj-37" value="始祖配置文件类" style="swimlane;fontStyle=0;childLayout=stackLayout;horizontal=1;startSize=30;horizontalStack=0;resizeParent=1;resizeParentMax=0;resizeLast=0;collapsible=1;marginBottom=0;whiteSpace=wrap;html=1;" vertex="1" collapsed="1" parent="1">
          <mxGeometry x="359" y="85" width="95" height="30" as="geometry">
            <mxRectangle x="359" y="85" width="109" height="60" as="alternateBounds" />
          </mxGeometry>
        </mxCell>
        <mxCell id="Gx557f4YZXInn6CYhVuj-38" value="" style="endArrow=classic;html=1;rounded=0;exitX=0.5;exitY=1;exitDx=0;exitDy=0;entryX=0.5;entryY=0;entryDx=0;entryDy=0;" edge="1" parent="1" source="Gx557f4YZXInn6CYhVuj-37" target="Gx557f4YZXInn6CYhVuj-33">
          <mxGeometry width="50" height="50" relative="1" as="geometry">
            <mxPoint x="426" y="242" as="sourcePoint" />
            <mxPoint x="476" y="192" as="targetPoint" />
          </mxGeometry>
        </mxCell>
        <mxCell id="Gx557f4YZXInn6CYhVuj-39" value="" style="endArrow=classic;html=1;rounded=0;exitX=0.5;exitY=1;exitDx=0;exitDy=0;entryX=0.75;entryY=0;entryDx=0;entryDy=0;" edge="1" parent="1" source="Gx557f4YZXInn6CYhVuj-33" target="Gx557f4YZXInn6CYhVuj-11">
          <mxGeometry width="50" height="50" relative="1" as="geometry">
            <mxPoint x="416" y="382" as="sourcePoint" />
            <mxPoint x="328" y="393" as="targetPoint" />
          </mxGeometry>
        </mxCell>
        <mxCell id="Gx557f4YZXInn6CYhVuj-41" value="Flow类" style="swimlane;fontStyle=0;childLayout=stackLayout;horizontal=1;startSize=30;horizontalStack=0;resizeParent=1;resizeParentMax=0;resizeLast=0;collapsible=1;marginBottom=0;whiteSpace=wrap;html=1;" vertex="1" parent="1">
          <mxGeometry x="205" y="640" width="109" height="150" as="geometry" />
        </mxCell>
        <mxCell id="Gx557f4YZXInn6CYhVuj-42" value="1.creatDir" style="text;strokeColor=none;fillColor=none;align=left;verticalAlign=middle;spacingLeft=4;spacingRight=4;overflow=hidden;points=[[0,0.5],[1,0.5]];portConstraint=eastwest;rotatable=0;whiteSpace=wrap;html=1;" vertex="1" parent="Gx557f4YZXInn6CYhVuj-41">
          <mxGeometry y="30" width="109" height="30" as="geometry" />
        </mxCell>
        <mxCell id="Gx557f4YZXInn6CYhVuj-43" value="2.copy file" style="text;strokeColor=none;fillColor=none;align=left;verticalAlign=middle;spacingLeft=4;spacingRight=4;overflow=hidden;points=[[0,0.5],[1,0.5]];portConstraint=eastwest;rotatable=0;whiteSpace=wrap;html=1;" vertex="1" parent="Gx557f4YZXInn6CYhVuj-41">
          <mxGeometry y="60" width="109" height="30" as="geometry" />
        </mxCell>
        <mxCell id="Gx557f4YZXInn6CYhVuj-44" value="1.createMakefile" style="text;strokeColor=none;fillColor=none;align=left;verticalAlign=middle;spacingLeft=4;spacingRight=4;overflow=hidden;points=[[0,0.5],[1,0.5]];portConstraint=eastwest;rotatable=0;whiteSpace=wrap;html=1;" vertex="1" parent="Gx557f4YZXInn6CYhVuj-41">
          <mxGeometry y="90" width="109" height="30" as="geometry" />
        </mxCell>
        <mxCell id="Gx557f4YZXInn6CYhVuj-45" value="3.creatFinalStage" style="text;strokeColor=none;fillColor=none;align=left;verticalAlign=middle;spacingLeft=4;spacingRight=4;overflow=hidden;points=[[0,0.5],[1,0.5]];portConstraint=eastwest;rotatable=0;whiteSpace=wrap;html=1;" vertex="1" parent="Gx557f4YZXInn6CYhVuj-41">
          <mxGeometry y="120" width="109" height="30" as="geometry" />
        </mxCell>
        <mxCell id="Gx557f4YZXInn6CYhVuj-46" value="" style="endArrow=classic;html=1;rounded=0;exitX=0.5;exitY=1;exitDx=0;exitDy=0;entryX=0.5;entryY=0;entryDx=0;entryDy=0;" edge="1" parent="1" source="Gx557f4YZXInn6CYhVuj-11" target="Gx557f4YZXInn6CYhVuj-41">
          <mxGeometry width="50" height="50" relative="1" as="geometry">
            <mxPoint x="260" y="639" as="sourcePoint" />
            <mxPoint x="476" y="545" as="targetPoint" />
          </mxGeometry>
        </mxCell>
      </root>
    </mxGraphModel>
  </diagram>
</mxfile>
